<svg width="240" height="236" viewBox="0 0 240 236" fill="none" xmlns="http://www.w3.org/2000/svg">
<path d="M240 180.492H0V180.61H240V180.492Z" fill="#EBEBEB"/>
<path d="M151.52 183.706H139.3V183.824H151.52V183.706Z" fill="#EBEBEB"/>
<path d="M218.613 186.26H189.653V186.378H218.613V186.26Z" fill="#EBEBEB"/>
<path d="M136.7 183.765H106.78V183.883H136.7V183.765Z" fill="#EBEBEB"/>
<path d="M87.3798 187.296H81.1201V187.414H87.3798V187.296Z" fill="#EBEBEB"/>
<path d="M121.96 187.296H93.46V187.414H121.96V187.296Z" fill="#EBEBEB"/>
<path d="M43.6381 185.303H25.1802V185.421H43.6381V185.303Z" fill="#EBEBEB"/>
<path d="M113.767 159.442H21.0792C19.5686 159.442 18.3394 158.233 18.3394 156.747V28.6315C18.3394 27.1461 19.5686 25.9373 21.0792 25.9373H113.767C115.277 25.9373 116.506 27.1461 116.506 28.6315V156.747C116.506 158.233 115.277 159.442 113.767 159.442ZM21.0792 26.0558C19.6344 26.0558 18.4594 27.2113 18.4594 28.632V156.748C18.4594 158.169 19.6344 159.324 21.0792 159.324H113.767C115.211 159.324 116.386 158.169 116.386 156.748V28.6315C116.386 27.2113 115.211 26.0553 113.767 26.0553L21.0792 26.0558Z" fill="#EBEBEB"/>
<path d="M217.589 159.442H124.902C123.391 159.442 122.163 158.233 122.163 156.747V28.6315C122.163 27.1461 123.392 25.9373 124.902 25.9373H217.589C219.1 25.9373 220.329 27.1461 220.329 28.6315V156.747C220.329 158.233 219.1 159.442 217.589 159.442ZM124.902 26.0558C123.458 26.0558 122.283 27.2113 122.283 28.632V156.748C122.283 158.169 123.458 159.324 124.902 159.324H217.589C219.034 159.324 220.209 158.169 220.209 156.748V28.6315C220.209 27.2113 219.034 26.0553 217.589 26.0553L124.902 26.0558Z" fill="#EBEBEB"/>
<path d="M94.0618 139.555H62.1893L60.2544 117.607H92.1269L94.0618 139.555Z" fill="#E6E6E6"/>
<path d="M95.7126 139.555H63.8406L61.9058 117.607H93.7778L95.7126 139.555Z" fill="#F0F0F0"/>
<path d="M68.197 134.841L67.1343 122.32H89.4207L90.4829 134.841H68.197Z" fill="white"/>
<path d="M101.227 139.555H97.4873V180.491H101.227V139.555Z" fill="#E6E6E6"/>
<path d="M102.407 139.555H99.8101V180.491H102.407V139.555Z" fill="#F0F0F0"/>
<path d="M66.2109 144.073H102.407V139.554H66.2109V144.073Z" fill="#F0F0F0"/>
<path d="M67.4902 144.073H63.7505V180.491H67.4902V144.073Z" fill="#E6E6E6"/>
<path d="M68.6705 144.073H66.0732V180.491H68.6705V144.073Z" fill="#F0F0F0"/>
<path d="M40.871 144.073H37.1313V180.491H40.871V144.073Z" fill="#E6E6E6"/>
<path d="M42.0514 144.073H39.4541V180.491H42.0514V144.073Z" fill="#F0F0F0"/>
<path d="M77.5619 144.073H73.8223V180.491H77.5619V144.073Z" fill="#E6E6E6"/>
<path d="M78.7423 144.073H76.145V180.491H78.7423V144.073Z" fill="#F0F0F0"/>
<path d="M66.2107 139.555H37.1313V144.073H66.2107V139.555Z" fill="#E6E6E6"/>
<path d="M174.642 37.4834H62.1636V99.0586H174.642V37.4834Z" fill="#E0E0E0"/>
<path d="M180.819 37.4834H62.7314V99.0586H180.819V37.4834Z" fill="#F5F5F5"/>
<path d="M178.89 97.1609V39.3801L64.6612 39.3801L64.6612 97.1609L178.89 97.1609Z" fill="white"/>
<path d="M110.911 97.1612L132.478 39.3804H96.8857L75.3193 97.1612H110.911Z" fill="#F5F5F5"/>
<path d="M145.172 97.1612L166.737 39.3804H139.888L118.322 97.1612H145.172Z" fill="#F5F5F5"/>
<path d="M210.293 121.683H200.732V180.492H210.293V121.683Z" fill="#E6E6E6"/>
<path d="M207.779 180.492H210.293V175.964H205.143L207.779 180.492Z" fill="#FAFAFA"/>
<path d="M122.138 121.683H112.577V180.492H122.138V121.683Z" fill="#E6E6E6"/>
<path d="M210.293 121.683H119.944V179.27H210.293V121.683Z" fill="#FAFAFA"/>
<path d="M208.583 140.264H121.654V124H208.583V140.264ZM122.134 139.792H208.103V124.472H122.134V139.792Z" fill="#E6E6E6"/>
<path d="M193.28 131.896H138.646C136.108 131.896 133.666 129.884 131.945 126.375L131.779 126.036H200.148L199.982 126.375C198.261 129.884 195.818 131.896 193.28 131.896ZM132.548 126.508C134.172 129.638 136.38 131.424 138.646 131.424H193.28C195.546 131.424 197.754 129.638 199.379 126.508H132.548Z" fill="#E6E6E6"/>
<path d="M122.458 180.492H119.944V175.964H125.094L122.458 180.492Z" fill="#FAFAFA"/>
<path d="M208.583 158.609H121.654V142.345H208.583V158.609ZM122.134 158.137H208.103V142.817H122.134V158.137Z" fill="#E6E6E6"/>
<path d="M193.28 150.241H138.646C136.108 150.241 133.666 148.228 131.945 144.719L131.779 144.381H200.148L199.982 144.719C198.261 148.229 195.818 150.241 193.28 150.241ZM132.548 144.853C134.172 147.983 136.38 149.769 138.646 149.769H193.28C195.546 149.769 197.754 147.983 199.379 144.853H132.548Z" fill="#E6E6E6"/>
<path d="M208.583 176.954H121.654V160.689H208.583V176.954ZM122.134 176.482H208.103V161.161H122.134V176.482Z" fill="#E6E6E6"/>
<path d="M193.28 168.586H138.646C136.108 168.586 133.666 166.573 131.945 163.064L131.779 162.726H200.148L199.982 163.064C198.261 166.574 195.818 168.586 193.28 168.586ZM132.548 163.198C134.172 166.328 136.38 168.114 138.646 168.114H193.28C195.546 168.114 197.754 166.328 199.379 163.198H132.548Z" fill="#E6E6E6"/>
<path d="M58.0716 129.462V130.603H57.3286L56.7152 139.555H47.6744L47.0614 130.603H46.3184V129.462H58.0716Z" fill="#E6E6E6"/>
<path d="M55.0961 107.244C54.353 101.911 47.0345 100.388 37.7479 100.193C28.9106 100.007 26.0801 96.9323 26.0801 96.9323C26.0801 96.9323 26.1079 109.383 38.8418 113.891C50.9335 118.172 55.8406 112.585 55.0961 107.244Z" fill="#E6E6E6"/>
<path d="M50.5816 119.333C50.7366 117.14 54.2978 113.109 62.8634 114.941C69.0573 116.266 71.3598 113.109 71.3598 113.109C71.3598 113.109 70.7862 122.02 61.4714 124.699C52.6259 127.243 50.3085 123.19 50.5816 119.333Z" fill="#E6E6E6"/>
<path d="M52.5359 132.823C52.6295 132.823 52.7226 132.784 52.7884 132.708C53.4095 131.986 52.9012 130.258 52.1985 127.866C51.2961 124.796 50.1733 120.976 51.1242 118.202C51.6609 116.635 52.3252 115.255 52.9669 113.919C54.3114 111.123 55.4725 108.708 54.5039 106.186C54.4396 106.018 54.249 105.934 54.0781 105.997C53.9077 106.06 53.8213 106.248 53.8857 106.416C54.7549 108.679 53.7023 110.869 52.3693 113.641C51.7492 114.93 51.0469 116.391 50.4978 117.993C49.4807 120.96 50.6356 124.889 51.5634 128.046C52.1106 129.907 52.6761 131.831 52.2839 132.287C52.1663 132.424 52.1836 132.629 52.3228 132.745C52.3847 132.797 52.4605 132.823 52.5359 132.823Z" fill="#E6E6E6"/>
<path d="M120 201.809C171.399 201.809 213.067 199.416 213.067 196.464C213.067 193.513 171.399 191.12 120 191.12C68.6005 191.12 26.9331 193.513 26.9331 196.464C26.9331 199.416 68.6005 201.809 120 201.809Z" fill="#F5F5F5"/>
<path d="M119.981 170.415H51.8209L48.0903 62.6254H116.25L119.981 170.415Z" fill="#407BFF"/>
<path d="M123.383 167.07H55.2227L51.4917 59.2804H119.652L123.383 167.07Z" fill="#407BFF"/>
<path opacity="0.3" d="M123.383 167.07H55.2227L51.4917 59.2804H119.652L123.383 167.07Z" fill="white"/>
<path d="M100.552 103.642C107.85 96.3422 107.541 84.4051 99.86 76.9797C92.1795 69.5543 80.0366 69.4523 72.7381 76.7521C65.4396 84.0518 65.7492 95.9888 73.4298 103.414C81.1103 110.84 93.2532 110.942 100.552 103.642Z" fill="#407BFF"/>
<path d="M102.465 90.194C102.558 92.8811 101.953 95.4039 100.81 97.6058C98.3085 102.456 93.196 105.754 87.1802 105.754C81.1648 105.754 75.8239 102.456 72.9866 97.6058C71.6915 95.4044 70.9111 92.8816 70.8179 90.194C70.5203 81.5989 77.3627 74.634 86.1031 74.634C94.8434 74.634 102.168 81.5989 102.465 90.194Z" fill="white"/>
<path opacity="0.6" d="M100.809 97.6058C98.3078 102.456 93.1953 105.754 87.1794 105.754C81.1641 105.754 75.8231 102.456 72.9858 97.6058C76.8791 94.989 81.6066 93.4612 86.7537 93.4612C91.9017 93.4612 96.7348 94.9886 100.809 97.6058Z" fill="#407BFF"/>
<path opacity="0.6" d="M91.5732 89.8136C94.2565 87.1299 94.1426 82.7414 91.3189 80.0114C88.4952 77.2815 84.031 77.2441 81.3477 79.9278C78.6645 82.6114 78.7783 87 81.602 89.7299C84.4257 92.4599 88.89 92.4973 91.5732 89.8136Z" fill="#407BFF"/>
<path d="M109.692 128.035H66.2112L65.917 119.539H109.398L109.692 128.035Z" fill="white"/>
<path d="M110.218 143.221H66.7371L66.4429 134.725H109.924L110.218 143.221Z" fill="white"/>
<path d="M93.4361 135.893L82.9582 137.293C82.5276 137.351 82.2444 137.737 82.326 138.146L83.7017 145.051C83.7838 145.463 84.2019 145.752 84.6324 145.695L95.1103 144.294C95.5409 144.237 95.8246 143.854 95.7425 143.441L94.3668 136.537C94.2852 136.127 93.8667 135.835 93.4361 135.893ZM90.4255 142.887L88.5286 143.141L88.3375 140.913C87.9339 140.738 87.6415 140.386 87.559 139.971C87.4246 139.296 87.8883 138.67 88.5924 138.576C89.2942 138.482 89.9763 138.954 90.1111 139.629C90.1937 140.044 90.0531 140.454 89.7387 140.725L90.4255 142.887Z" fill="#407BFF"/>
<path d="M92.4021 135.523C92.0191 135.574 91.6495 135.318 91.5765 134.951L91.4416 134.275C91.0711 132.415 89.2624 131.011 87.3045 131.178C85.2117 131.358 83.8087 133.175 84.2003 135.14L84.3549 135.917C84.4279 136.283 84.1768 136.622 83.7938 136.673C83.4107 136.724 83.0411 136.468 82.9682 136.102L82.8371 135.443C82.3207 132.851 83.98 130.358 86.6647 129.899C89.4871 129.416 92.2701 131.288 92.8082 133.989L92.9627 134.765C93.0357 135.132 92.7847 135.471 92.4021 135.523Z" fill="#407BFF"/>
<path d="M103.04 155.118H74.7374L74.5464 149.587H102.849L103.04 155.118Z" fill="#407BFF"/>
<path d="M89.3849 123.787C89.4146 124.645 88.7311 125.341 87.8585 125.341C86.9858 125.341 86.2543 124.645 86.2246 123.787C86.1948 122.929 86.8783 122.233 87.751 122.233C88.6236 122.233 89.3551 122.929 89.3849 123.787Z" fill="#263238"/>
<path d="M82.5817 123.787C82.6114 124.645 81.9279 125.341 81.0553 125.341C80.1826 125.341 79.4511 124.645 79.4213 123.787C79.3916 122.929 80.0751 122.233 80.9477 122.233C81.8204 122.233 82.5519 122.929 82.5817 123.787Z" fill="#263238"/>
<path d="M75.7784 123.787C75.8082 124.645 75.1247 125.341 74.252 125.341C73.3794 125.341 72.6479 124.645 72.6181 123.787C72.5884 122.929 73.2719 122.233 74.1445 122.233C75.0172 122.233 75.7487 122.929 75.7784 123.787Z" fill="#263238"/>
<path d="M96.1876 123.787C96.2174 124.645 95.5339 125.341 94.6612 125.341C93.7886 125.341 93.0571 124.645 93.0273 123.787C92.9975 122.929 93.6811 122.233 94.5537 122.233C95.4263 122.233 96.1579 122.929 96.1876 123.787Z" fill="#263238"/>
<path d="M102.991 123.787C103.021 124.645 102.337 125.341 101.464 125.341C100.592 125.341 99.8603 124.645 99.8305 123.787C99.8008 122.929 100.484 122.233 101.357 122.233C102.23 122.233 102.962 122.929 102.991 123.787Z" fill="#263238"/>
<path d="M160.276 82.2606C160.916 83.2684 161.445 84.2355 161.994 85.2394C162.541 86.2335 163.035 87.2563 163.521 88.2867C164.475 90.3554 165.33 92.4898 165.968 94.7677C166.054 95.0471 166.119 95.3435 166.19 95.6338L166.295 96.0704L166.348 96.2885L166.41 96.6481C166.547 97.6072 166.427 98.3893 166.26 99.0794C165.916 100.455 165.361 101.552 164.766 102.599C163.552 104.671 162.135 106.436 160.501 108.108L158.48 106.604C159.476 104.744 160.461 102.795 161.186 100.922C161.536 99.9904 161.832 99.0421 161.918 98.2638C161.96 97.881 161.932 97.552 161.878 97.4298L161.689 96.853C161.61 96.616 161.54 96.3805 161.445 96.1417C160.753 94.2372 159.873 92.3241 158.916 90.438C157.971 88.559 156.925 86.646 155.895 84.8604L160.276 82.2606Z" fill="#FF8B7B"/>
<path d="M158.993 105.929L156.79 107.079L159.323 109.996C159.323 109.996 160.905 108.944 160.976 107.337L158.993 105.929Z" fill="#FF8B7B"/>
<path d="M153.823 108.878L156.538 110.996L159.323 109.996L156.789 107.079L153.823 108.878Z" fill="#FF8B7B"/>
<path d="M144.552 66.8182C144.498 67.0806 144.313 67.2652 144.138 67.2303C143.964 67.1953 143.867 66.9546 143.921 66.6922C143.975 66.4297 144.16 66.2452 144.335 66.2801C144.509 66.315 144.607 66.5562 144.552 66.8182Z" fill="#263238"/>
<path d="M144.337 67.2704C144.337 67.2704 143.418 68.6628 142.599 69.2599C142.981 69.7876 143.825 69.7498 143.825 69.7498L144.337 67.2704Z" fill="#FF5652"/>
<path d="M143.472 76.5291L143.493 73.4356L147.659 73.9308C147.659 73.9308 147.588 76.591 145.261 77.3731L143.472 76.5291Z" fill="#FF8B7B"/>
<path d="M144.67 71.2078L147.603 72.0366L147.66 73.9308L143.493 73.4357L144.67 71.2078Z" fill="#FF8B7B"/>
<path opacity="0.2" d="M147.605 72.0366L144.672 71.2059L144.101 72.2821C144.173 74.1087 145.305 75.6097 146.808 76.2846C147.624 75.2321 147.657 73.9294 147.657 73.9294L147.605 72.0366Z" fill="black"/>
<path d="M145.831 65.5566C145.87 65.5566 145.908 65.5429 145.939 65.5145C146.004 65.4555 146.008 65.356 145.948 65.2922C145.347 64.6531 144.619 64.7669 144.587 64.7721C144.5 64.7867 144.442 64.8679 144.456 64.9533C144.471 65.0388 144.555 65.0959 144.64 65.0822C144.664 65.0784 145.234 64.9963 145.713 65.506C145.745 65.5396 145.787 65.5566 145.831 65.5566Z" fill="#263238"/>
<path d="M151.963 71.5944C151.479 74.0233 151.187 77.3882 152.915 79.009C152.915 79.009 152.239 81.4729 147.65 81.4729C142.603 81.4729 145.222 79.3106 145.222 79.3106C147.32 78.6706 147.302 76.321 146.822 74.4335L151.963 71.5944Z" fill="#FF8B7B"/>
<path d="M153.86 80.6332C154.309 80.0073 154.291 78.0301 153.811 77.6813C153.037 77.1182 149.723 76.9889 145.26 77.998C145.74 79.9134 144.711 80.9173 144.711 80.9173L153.86 80.6332Z" fill="#407BFF"/>
<path d="M168.861 192.688C168.522 192.76 168.184 192.779 168.021 192.643C167.952 192.585 167.883 192.475 167.943 192.277C167.975 192.173 168.044 192.095 168.149 192.046C168.605 191.832 169.653 192.252 169.697 192.27C169.727 192.281 169.746 192.309 169.747 192.34C169.748 192.371 169.73 192.399 169.702 192.413C169.541 192.489 169.201 192.616 168.861 192.688ZM168.312 192.157C168.277 192.165 168.246 192.175 168.218 192.188C168.155 192.218 168.115 192.262 168.097 192.322C168.054 192.464 168.108 192.508 168.125 192.523C168.307 192.675 168.981 192.534 169.456 192.348C169.133 192.236 168.612 192.094 168.312 192.157Z" fill="#407BFF"/>
<path d="M169.684 192.419C169.671 192.422 169.658 192.422 169.645 192.418C169.263 192.308 168.447 191.738 168.437 191.362C168.435 191.293 168.459 191.169 168.641 191.107C168.759 191.067 168.878 191.076 168.995 191.135C169.447 191.362 169.732 192.281 169.744 192.32C169.752 192.348 169.745 192.378 169.724 192.398C169.712 192.409 169.699 192.416 169.684 192.419ZM168.728 191.246C168.717 191.248 168.705 191.252 168.693 191.255C168.595 191.289 168.596 191.337 168.596 191.357C168.602 191.58 169.141 192.028 169.536 192.209C169.437 191.944 169.212 191.42 168.923 191.275C168.857 191.242 168.793 191.232 168.728 191.246Z" fill="#407BFF"/>
<path d="M143.935 193.245C143.501 193.245 143.083 193.186 142.943 192.995C142.894 192.928 142.855 192.813 142.949 192.651C143.002 192.56 143.088 192.498 143.203 192.467C143.765 192.317 144.945 192.978 144.995 193.006C145.024 193.023 145.039 193.055 145.034 193.087C145.028 193.119 145.003 193.145 144.97 193.151C144.755 193.194 144.339 193.245 143.935 193.245ZM143.399 192.601C143.343 192.601 143.291 192.607 143.245 192.619C143.171 192.639 143.12 192.675 143.088 192.729C143.032 192.827 143.052 192.875 143.073 192.903C143.23 193.117 144.083 193.122 144.711 193.035C144.398 192.877 143.794 192.601 143.399 192.601Z" fill="#407BFF"/>
<path d="M144.955 193.153C144.944 193.153 144.933 193.151 144.922 193.146C144.514 192.966 143.707 192.248 143.769 191.873C143.783 191.784 143.847 191.675 144.067 191.653C144.231 191.636 144.379 191.682 144.51 191.788C144.94 192.135 145.03 193.029 145.034 193.067C145.037 193.095 145.024 193.122 145.001 193.138C144.988 193.148 144.971 193.153 144.955 193.153ZM144.131 191.807C144.115 191.807 144.099 191.808 144.083 191.809C143.939 191.824 143.93 191.879 143.927 191.898C143.89 192.123 144.438 192.687 144.854 192.933C144.811 192.672 144.691 192.137 144.409 191.909C144.324 191.841 144.232 191.807 144.131 191.807Z" fill="#407BFF"/>
<path d="M148.667 193.074H145.291L144.955 185.386H148.331L148.667 193.074Z" fill="#FF8B7B"/>
<path d="M173.447 191.538L170.148 192.24L166.835 185.079L170.134 184.376L173.447 191.538Z" fill="#FF8B7B"/>
<path d="M169.831 191.914L173.538 191.125C173.672 191.096 173.81 191.164 173.867 191.287L175.154 194.033C175.288 194.317 175.111 194.651 174.798 194.712C173.499 194.966 172.854 195.025 171.223 195.372C170.22 195.585 167.956 196.128 166.571 196.423C165.217 196.711 164.709 195.409 165.249 195.167C167.671 194.079 168.683 193.121 169.339 192.228C169.457 192.067 169.633 191.956 169.831 191.914Z" fill="#263238"/>
<path d="M145.313 192.69H149C149.138 192.69 149.257 192.785 149.287 192.917L149.954 195.868C150.023 196.174 149.787 196.463 149.468 196.458C148.138 196.436 146.216 196.359 144.545 196.359C142.591 196.359 140.902 196.464 138.61 196.464C137.224 196.464 136.839 195.086 137.419 194.961C140.061 194.393 142.217 194.332 144.499 192.948C144.748 192.798 145.022 192.69 145.313 192.69Z" fill="#263238"/>
<path d="M158.96 79.7595C162.124 80.4727 164.733 88.4164 164.733 88.4164L158.379 93.1789C158.379 93.1789 156.047 91.0167 155.009 87.0434C153.921 82.8799 155.724 79.0303 158.96 79.7595Z" fill="#407BFF"/>
<path opacity="0.4" d="M158.96 79.7595C162.124 80.4727 164.733 88.4164 164.733 88.4164L158.379 93.1789C158.379 93.1789 156.047 91.0167 155.009 87.0434C153.921 82.8799 155.724 79.0303 158.96 79.7595Z" fill="black"/>
<path d="M142.321 89.2396C141.531 90.0774 140.744 90.8227 139.928 91.5897C139.524 91.9711 139.11 92.3449 138.687 92.7117L138.05 93.2606L137.889 93.397C137.812 93.4626 137.717 93.5405 137.616 93.6165C137.405 93.7699 137.173 93.9488 136.688 94.155C136.432 94.2523 136.101 94.3811 135.521 94.3924C135.245 94.3967 134.871 94.3495 134.513 94.2164C134.148 94.0833 133.795 93.8529 133.553 93.616C133.051 93.1199 132.899 92.6847 132.8 92.3935C132.708 92.0933 132.682 91.879 132.663 91.6917C132.633 91.3254 132.652 91.0776 132.673 90.8482C132.695 90.6216 132.727 90.4258 132.762 90.2407C132.903 89.5129 133.103 88.9257 133.319 88.3376C133.539 87.7557 133.782 87.1968 134.065 86.6318C134.37 86.0305 134.664 85.5944 134.958 85.0917C136.144 83.1423 137.536 81.3619 139.015 79.684C140.526 78.0173 142.111 76.4937 143.935 75.0975L145.702 76.885C144.461 78.5177 143.24 80.2674 142.113 81.993C140.986 83.7314 139.941 85.5014 139.042 87.3011C138.835 87.7457 138.579 88.2328 138.435 88.6048C138.266 89.0112 138.112 89.4478 137.984 89.8778C137.859 90.3026 137.757 90.7453 137.712 91.07C137.701 91.1484 137.696 91.2168 137.696 91.2565C137.695 91.2928 137.704 91.3131 137.699 91.2126C137.695 91.1578 137.689 91.0762 137.637 90.9034C137.579 90.7392 137.488 90.4281 137.083 90.026C136.889 89.8376 136.596 89.6403 136.292 89.5337C135.999 89.4209 135.692 89.3878 135.484 89.3888C135.04 89.3987 134.842 89.4879 134.71 89.5341C134.475 89.6342 134.47 89.6611 134.473 89.6507L134.657 89.4855L135.234 88.9663L136.381 87.9095C137.141 87.2058 137.905 86.4553 138.626 85.7586L142.321 89.2396Z" fill="#FF8B7B"/>
<path opacity="0.2" d="M156.248 85.601C157.967 87.2733 158.527 90.3191 158.661 92.967L158.38 93.1794C158.38 93.1794 156.046 91.0148 155.007 87.0425C154.943 86.7942 154.887 86.5454 154.841 86.3014L156.248 85.601Z" fill="black"/>
<path d="M138.963 83.0885C138.273 86.6753 137.841 94.0403 139.845 108.626H157.903C158.028 105.9 156.286 92.6031 158.96 79.7595C158.96 79.7595 155.864 79.1487 152.915 79.009C150.607 78.8995 147.266 78.8273 145.238 79.0095C144.391 79.0855 143.56 79.2058 142.82 79.3347C140.867 79.6741 139.332 81.1727 138.963 83.0885Z" fill="#407BFF"/>
<path opacity="0.4" d="M138.963 83.0885C138.273 86.6753 137.841 94.0403 139.845 108.626H157.903C158.028 105.9 156.286 92.6031 158.96 79.7595C158.96 79.7595 155.864 79.1487 152.915 79.009C150.607 78.8995 147.266 78.8273 145.238 79.0095C144.391 79.0855 143.56 79.2058 142.82 79.3347C140.867 79.6741 139.332 81.1727 138.963 83.0885Z" fill="black"/>
<path opacity="0.2" d="M141.727 88.3895L138.464 87.6211C138.362 89.5643 138.353 91.973 138.501 94.9513C140.004 93.27 141.92 90.649 141.727 88.3895Z" fill="black"/>
<path opacity="0.2" d="M144.956 185.388L145.128 189.351H148.506L148.333 185.388H144.956Z" fill="black"/>
<path opacity="0.2" d="M170.136 184.378L166.835 185.081L168.544 188.772L171.846 188.069L170.136 184.378Z" fill="black"/>
<path d="M153.568 68.0411C152.701 71.2238 152.357 73.1298 150.36 74.4533C147.356 76.4437 143.616 74.1592 143.499 70.7858C143.393 67.7495 144.83 63.0549 148.302 62.4135C151.724 61.782 154.435 64.8585 153.568 68.0411Z" fill="#FF8B7B"/>
<path d="M145.991 68.1634C145.83 67.7367 145.082 64.4478 145.784 63.594C146.486 62.7401 154.477 63.3542 155.659 64.4979C157.62 66.3948 156.26 68.0879 154.114 70.2723C152.499 71.9149 152.437 73.7665 151.623 74.0379C150.197 74.5142 147.984 74.0667 147.541 72.5691C147.097 71.0719 145.991 68.1634 145.991 68.1634Z" fill="#263238"/>
<path d="M154.691 60.7568C151.867 59.574 146.571 60.8823 143.711 60.2045C143.609 61.6607 144.503 63.9956 147.362 64.6234C147.362 64.6234 151.422 65.4017 154.562 65.2762C157.703 65.1506 157.09 61.7612 154.691 60.7568Z" fill="#263238"/>
<path d="M155.133 64.5984C155.133 64.5984 156.88 64.7919 158.119 64.0348C158.65 65.2899 155.746 65.6344 155.133 64.5984Z" fill="#263238"/>
<path d="M147.53 68.2941C147.477 69.1555 147.071 69.966 146.581 70.4965C145.845 71.2937 145.077 70.7976 144.947 69.8263C144.829 68.9521 145.07 67.4837 145.97 67.0443C146.857 66.6105 147.589 67.3091 147.53 68.2941Z" fill="#FF8B7B"/>
<path d="M146.251 108.626C146.251 108.626 150.082 133.997 152.186 143.503C154.49 153.912 166.841 188.349 166.841 188.349L172.885 187.063C172.885 187.063 164.248 158.998 162.315 144.446C160.83 133.268 157.903 108.626 157.903 108.626H146.251Z" fill="#407BFF"/>
<path d="M165.394 186.365C165.368 186.371 166.521 188.514 166.521 188.514L173.32 187.067L172.747 185.057L165.394 186.365Z" fill="#263238"/>
<path opacity="0.3" d="M148.673 117.666C153.103 118.52 152.634 134.766 152.101 143.122C150.824 137.216 148.954 125.85 147.676 117.783C147.97 117.639 148.301 117.594 148.673 117.666Z" fill="black"/>
<path d="M139.846 108.626C139.846 108.626 139.38 133.449 139.748 143.572C140.13 154.103 143.87 188.584 143.87 188.584H149.59C149.59 188.584 149.799 154.719 150.054 144.376C150.331 133.102 151.715 108.626 151.715 108.626H139.846Z" fill="#407BFF"/>
<path d="M142.769 186.344C142.743 186.344 143.092 188.679 143.092 188.679H150.049L150.237 186.595L142.769 186.344Z" fill="#263238"/>
<path d="M146.041 84.1774C147.66 88.4674 138.149 93.5207 138.149 93.5207L134.031 88.3154C134.031 88.3154 136.778 82.9394 140.149 80.5156C144.313 77.5217 144.808 80.9116 146.041 84.1774Z" fill="#407BFF"/>
<path opacity="0.4" d="M146.041 84.1774C147.66 88.4674 138.149 93.5207 138.149 93.5207L134.031 88.3154C134.031 88.3154 136.778 82.9394 140.149 80.5156C144.313 77.5217 144.808 80.9116 146.041 84.1774Z" fill="black"/>
<path d="M183.3 51.6052C192.866 51.6052 200.622 46.7448 200.622 40.7492C200.622 34.7536 192.866 29.8932 183.3 29.8932C173.733 29.8932 165.978 34.7536 165.978 40.7492C165.978 46.7448 173.733 51.6052 183.3 51.6052Z" fill="#407BFF"/>
<path d="M177.046 46.2135C176.084 46.2135 175.144 45.9303 174.328 45.3833C173.234 44.6498 172.507 43.5377 172.281 42.252C171.849 39.7943 173.509 37.3456 175.981 36.7933C178.016 36.3397 180.083 37.1927 181.176 38.9254L192.296 36.6687C193.197 36.4861 194.112 37.0142 194.334 37.8473C194.452 38.29 194.382 38.7474 194.137 39.1354C193.892 39.5234 193.507 39.7872 193.053 39.8797L192.761 39.9392C192.673 39.9567 192.602 40.0086 192.56 40.0851C192.518 40.1606 192.512 40.2498 192.543 40.33L192.739 40.8313C192.872 41.1707 192.748 41.5525 192.443 41.739C192.206 41.8843 192.045 42.1335 192.013 42.4064C191.973 42.7405 191.746 42.9978 191.435 43.061L191.206 43.1073C190.895 43.1696 190.583 43.0233 190.412 42.7316C190.211 42.3908 189.813 42.2152 189.419 42.2954C189.024 42.3757 188.727 42.6924 188.679 43.0837C188.638 43.4183 188.411 43.6751 188.101 43.7379L187.877 43.7832C187.569 43.846 187.254 43.6987 187.083 43.4075C186.942 43.1696 186.693 43.0034 186.415 42.9629C186.06 42.9109 185.792 42.6088 185.777 42.2445L185.755 41.7078C185.751 41.6205 185.711 41.5431 185.641 41.4897C185.572 41.4359 185.488 41.4166 185.398 41.4336L181.855 42.1529C181.554 44.1273 180.041 45.708 178.038 46.1144C177.707 46.18 177.375 46.2135 177.046 46.2135ZM176.087 37.2535C173.86 37.751 172.365 39.9576 172.754 42.1718C172.957 43.3305 173.613 44.3321 174.599 44.9934C175.585 45.6547 176.772 45.8883 177.942 45.6509C179.797 45.2742 181.187 43.778 181.401 41.9278L181.42 41.7578L185.301 40.9701C185.525 40.9243 185.757 40.9781 185.937 41.1169C186.117 41.2552 186.225 41.4633 186.235 41.688L186.257 42.2246C186.262 42.3606 186.36 42.4772 186.485 42.4951C186.913 42.5579 187.281 42.8038 187.498 43.1701C187.551 43.2597 187.651 43.3461 187.78 43.3202L188.004 43.2748C188.132 43.2489 188.191 43.1299 188.203 43.027C188.275 42.4342 188.725 41.9542 189.323 41.8329C189.919 41.712 190.523 41.9783 190.828 42.4946C190.881 42.5843 190.98 42.6716 191.109 42.6447L191.339 42.5985C191.466 42.5725 191.525 42.454 191.536 42.3516C191.586 41.9306 191.825 41.5615 192.191 41.3382C192.298 41.2726 192.341 41.1277 192.292 41.0012L192.096 40.4995C192.014 40.2894 192.03 40.0563 192.14 39.859C192.249 39.6622 192.441 39.5229 192.665 39.4776L192.957 39.4181C193.281 39.3525 193.556 39.1637 193.73 38.8876C193.905 38.611 193.955 38.2844 193.871 37.9681C193.713 37.3744 193.049 36.9987 192.393 37.1327L180.936 39.4578L180.85 39.3096C179.889 37.658 177.977 36.8311 176.087 37.2535ZM177.052 44.4685C176.458 44.4685 175.877 44.2986 175.368 43.9701C174.682 43.5259 174.213 42.8463 174.047 42.0557C173.881 41.2636 174.038 40.4561 174.489 39.782C174.941 39.1085 175.632 38.6478 176.437 38.4845C177.242 38.3207 178.064 38.4746 178.749 38.9178C179.433 39.3605 179.902 40.0412 180.068 40.8337C180.235 41.6243 180.078 42.4314 179.627 43.1054C179.177 43.7804 178.485 44.242 177.679 44.4053C177.47 44.4478 177.261 44.4685 177.052 44.4685ZM177.067 38.8928C176.889 38.8928 176.711 38.9107 176.534 38.9466C175.855 39.0844 175.271 39.4734 174.891 40.0416C174.51 40.6104 174.378 41.2915 174.518 41.9603C174.658 42.6273 175.053 43.2007 175.633 43.5755C176.212 43.9498 176.904 44.0805 177.583 43.9427C178.263 43.8049 178.846 43.415 179.227 42.8458C179.607 42.277 179.739 41.5964 179.599 40.9285C179.458 40.2597 179.063 39.6853 178.485 39.3115C178.058 39.0363 177.568 38.8928 177.067 38.8928Z" fill="white"/>
<path opacity="0.6" d="M169.198 57.9701C172.342 57.9701 174.891 56.3725 174.891 54.4018C174.891 52.431 172.342 50.8335 169.198 50.8335C166.053 50.8335 163.504 52.431 163.504 54.4018C163.504 56.3725 166.053 57.9701 169.198 57.9701Z" fill="#407BFF"/>
<path opacity="0.3" d="M160.142 59.4342C161.433 59.4342 162.479 58.7785 162.479 57.9696C162.479 57.1607 161.433 56.505 160.142 56.505C158.851 56.505 157.805 57.1607 157.805 57.9696C157.805 58.7785 158.851 59.4342 160.142 59.4342Z" fill="#407BFF"/>
</svg>
