<svg width="24" height="24" viewBox="0 0 24 24" fill="none" xmlns="http://www.w3.org/2000/svg">
<path d="M19.506 7.96C18.7928 10.7426 17.3448 13.2824 15.3136 15.3136C13.2824 17.3448 10.7426 18.7928 7.96 19.506C5.819 20.051 4 18.21 4 16V15C4 14.448 4.449 14.005 4.998 13.95C5.90852 13.8603 6.80229 13.6452 7.654 13.311L9.174 14.831C11.6489 13.6447 13.6447 11.6489 14.831 9.174L13.311 7.654C13.6456 6.80234 13.8609 5.90857 13.951 4.998C14.005 4.448 14.448 4 15 4H16C18.21 4 20.051 5.819 19.506 7.96Z" stroke="#757575" stroke-width="1.5" stroke-linecap="round" stroke-linejoin="round"/>
</svg>
