<svg width="50" height="50" viewBox="0 0 50 50" fill="none" xmlns="http://www.w3.org/2000/svg">
<path d="M34.4563 19.1375C33.4879 18.7846 32.4642 18.6075 31.4334 18.6146C28.1001 18.6146 25.7459 20.2937 25.7293 22.7042C25.7084 24.475 27.4022 25.4729 28.6834 26.0646C29.998 26.6729 30.4376 27.0562 30.4334 27.6C30.4251 28.4271 29.3834 28.8021 28.4147 28.8021C27.0834 28.8021 26.3563 28.6167 25.2376 28.1521L24.823 27.9583L24.3501 30.7333C25.1605 31.0708 26.6209 31.3604 28.1293 31.3854C31.673 31.3854 33.9897 29.7167 34.0168 27.1521C34.0459 25.7375 33.1293 24.6687 31.2001 23.7854C30.0272 23.2125 29.3001 22.8292 29.3001 22.2479C29.3001 21.7333 29.923 21.1833 31.2251 21.1833C32.0917 21.1624 32.9529 21.325 33.7522 21.6604L34.0647 21.8L34.5376 19.1187L34.4563 19.1375ZM43.1063 18.8396H40.5022C39.6918 18.8396 39.0813 19.0625 38.7272 19.8667L33.7188 31.2125H37.2626L37.9709 29.3521L42.2959 29.3562C42.398 29.7917 42.7105 31.2125 42.7105 31.2125H45.8355L43.1063 18.8396ZM20.9355 18.7354H24.3126L22.2001 31.1146H18.8272L20.9355 18.7312V18.7354ZM12.3626 25.5583L12.7126 27.2771L16.0126 18.8396H19.5897L14.2751 31.1958H10.7063L7.78968 20.7333C7.74244 20.5608 7.6315 20.4126 7.47926 20.3187C6.42802 19.7757 5.31415 19.3636 4.1626 19.0917L4.20843 18.8312H9.64385C10.3813 18.8604 10.9751 19.0917 11.173 19.8792L12.3605 25.5646L12.3626 25.5583ZM38.9397 26.8208L40.2855 23.3583C40.2688 23.3958 40.5626 22.6437 40.7334 22.1792L40.9647 23.2479L41.7459 26.8187H38.9376L38.9397 26.8208Z" fill="#4D8BBB"/>
</svg>
