<svg width="50" height="50" viewBox="0 0 50 50" fill="none" xmlns="http://www.w3.org/2000/svg">
<path d="M41.6667 43.75H30.8333C31.0417 43.3333 31.0417 42.9166 31.0417 42.5C37.2917 40 41.4583 33.9583 41.4583 27.0833C41.4583 22.9166 39.7917 18.9583 37.0833 15.8333L38.3333 14.5833C38.5417 14.375 38.75 14.1666 38.75 13.75L40.2083 9.37498C40.4167 8.54164 40.2083 7.70831 39.7917 7.29164L35.4167 2.91664C34.7917 2.29164 33.9583 2.08331 33.3333 2.49998L29.1667 3.74998C28.9583 3.74998 28.5417 3.95831 28.3333 4.16664L15 17.5C14.1667 18.3333 14.1667 19.5833 15 20.4166L12.0833 23.3333C11.25 24.1666 11.25 25.4166 12.0833 26.25L16.4583 30.625C17.2917 31.4583 18.5417 31.4583 19.375 30.625L22.2917 27.7083C23.125 28.5416 24.375 28.5416 25.2083 27.7083L34.375 18.75C36.4583 21.0416 37.5 23.9583 37.5 27.0833C37.5 31.875 34.5833 36.25 30.2083 38.3333C28.3333 35.4166 24.5833 34.375 21.6667 36.25C20.8333 36.875 20 37.5 19.5833 38.5416C18.75 38.125 17.9167 37.9166 17.2917 37.2916C18.125 37.0833 18.75 36.25 18.75 35.4166C18.75 34.1666 17.9167 33.3333 16.6667 33.3333H8.33333C7.08333 33.3333 6.25 34.1666 6.25 35.4166C6.25 36.6666 7.08333 37.5 8.33333 37.5H11.0417C13.125 39.7916 15.8333 41.6666 18.75 42.7083C18.75 43.125 18.9583 43.5416 18.9583 43.75H8.33333C7.08333 43.75 6.25 44.5833 6.25 45.8333C6.25 47.0833 7.08333 47.9166 8.33333 47.9166H41.6667C42.9167 47.9166 43.75 47.0833 43.75 45.8333C43.75 44.7916 42.9167 43.75 41.6667 43.75ZM17.9167 26.25L16.4583 24.7916L17.9167 23.3333L19.375 24.7916L17.9167 26.25ZM25 43.75C23.75 43.75 22.9167 42.9166 22.9167 41.6666C22.9167 40.4166 23.75 39.5833 25 39.5833C26.25 39.5833 27.0833 40.4166 27.0833 41.6666C27.0833 42.9166 26.25 43.75 25 43.75Z" fill="#4D8BBB"/>
</svg>
