<svg width="24" height="23" viewBox="0 0 24 23" fill="none" xmlns="http://www.w3.org/2000/svg">
<path fill-rule="evenodd" clip-rule="evenodd" d="M6.66667 5.07937C6.66667 3.73223 7.22857 2.44028 8.22876 1.48771C9.22896 0.535146 10.5855 0 12 0C13.4145 0 14.771 0.535146 15.7712 1.48771C16.7714 2.44028 17.3333 3.73223 17.3333 5.07937C17.3333 6.4265 16.7714 7.71845 15.7712 8.67102C14.771 9.62358 13.4145 10.1587 12 10.1587C10.5855 10.1587 9.22896 9.62358 8.22876 8.67102C7.22857 7.71845 6.66667 6.4265 6.66667 5.07937ZM6.66667 12.6984C4.89856 12.6984 3.20286 13.3673 1.95262 14.5581C0.702379 15.7488 0 17.3637 0 19.0476C0 20.058 0.421427 21.0269 1.17157 21.7414C1.92172 22.4558 2.93913 22.8571 4 22.8571H20C21.0609 22.8571 22.0783 22.4558 22.8284 21.7414C23.5786 21.0269 24 20.058 24 19.0476C24 17.3637 23.2976 15.7488 22.0474 14.5581C20.7971 13.3673 19.1014 12.6984 17.3333 12.6984H6.66667Z" fill="#4D8BBB"/>
</svg>
