<svg width="30" height="30" viewBox="0 0 30 30" fill="none" xmlns="http://www.w3.org/2000/svg">
<path d="M26.25 14.0001C26.2537 16.2335 25.5894 18.4171 24.3425 20.2701C23.3142 21.8038 21.9238 23.0605 20.2944 23.929C18.6649 24.7976 16.8465 25.2514 15 25.2501C13.1535 25.2514 11.3351 24.7976 9.70563 23.929C8.07616 23.0605 6.68581 21.8038 5.6575 20.2701C4.67841 18.8106 4.05488 17.142 3.83688 15.3981C3.61889 13.6542 3.81249 11.8835 4.40218 10.2279C4.99187 8.57235 5.96124 7.07794 7.23258 5.86452C8.50392 4.6511 10.0419 3.75241 11.7231 3.2405C13.4044 2.72859 15.1822 2.6177 16.9141 2.91671C18.6459 3.21572 20.2836 3.91632 21.6959 4.96235C23.1082 6.00838 24.2557 7.37073 25.0466 8.94021C25.8374 10.5097 26.2496 12.2426 26.25 14.0001Z" stroke="#F5F5F5"/>
<path d="M16.875 10.2501C16.875 10.7474 16.6774 11.2243 16.3258 11.5759C15.9742 11.9276 15.4973 12.1251 15 12.1251V13.3751C15.4104 13.3751 15.8167 13.2943 16.1959 13.1372C16.575 12.9802 16.9195 12.75 17.2097 12.4598C17.4999 12.1696 17.7301 11.8252 17.8871 11.446C18.0442 11.0669 18.125 10.6605 18.125 10.2501H16.875ZM15 12.1251C14.5027 12.1251 14.0258 11.9276 13.6742 11.5759C13.3225 11.2243 13.125 10.7474 13.125 10.2501H11.875C11.875 10.6605 11.9558 11.0669 12.1129 11.446C12.2699 11.8252 12.5001 12.1696 12.7903 12.4598C13.3763 13.0459 14.1712 13.3751 15 13.3751V12.1251ZM13.125 10.2501C13.125 9.75284 13.3225 9.27593 13.6742 8.9243C14.0258 8.57267 14.5027 8.37512 15 8.37512V7.12512C14.1712 7.12512 13.3763 7.45436 12.7903 8.04041C12.2042 8.62646 11.875 9.42132 11.875 10.2501H13.125ZM15 8.37512C15.4973 8.37512 15.9742 8.57267 16.3258 8.9243C16.6774 9.27593 16.875 9.75284 16.875 10.2501H18.125C18.125 9.42132 17.7957 8.62646 17.2097 8.04041C16.6236 7.45436 15.8288 7.12512 15 7.12512V8.37512ZM6.45748 21.3201L5.85748 21.1426L5.76123 21.4689L5.98248 21.7276L6.45748 21.3201ZM23.5425 21.3201L24.0175 21.7276L24.2387 21.4689L24.1412 21.1426L23.5425 21.3201ZM11.25 18.3751H18.75V17.1251H11.25V18.3751ZM11.25 17.1251C10.0386 17.1253 8.85972 17.5164 7.88842 18.2402C6.91711 18.964 6.20404 19.9819 5.85748 21.1426L7.05623 21.4989C7.32605 20.5962 7.87988 19.8047 8.63541 19.242C9.39095 18.6792 10.3079 18.3752 11.25 18.3751V17.1251ZM15 24.6251C13.4666 24.6268 11.9511 24.2957 10.558 23.6547C9.16498 23.0138 7.92759 22.0782 6.93123 20.9126L5.98248 21.7276C7.09629 23.0298 8.47928 24.075 10.0361 24.791C11.5929 25.507 13.2864 25.8769 15 25.8751V24.6251ZM18.75 18.3751C19.6922 18.3753 20.6093 18.6795 21.3648 19.2425C22.1204 19.8055 22.6741 20.5973 22.9437 21.5001L24.1412 21.1426C23.7947 19.9819 23.0828 18.964 22.1115 18.2402C21.1402 17.5164 19.9613 17.1253 18.75 17.1251V18.3751ZM23.0687 20.9126C22.0724 22.0782 20.835 23.0138 19.4419 23.6547C18.0489 24.2957 16.5334 24.6268 15 24.6251V25.8751C16.7135 25.8769 18.4071 25.507 19.9639 24.791C21.5207 24.075 22.9037 23.0298 24.0175 21.7276L23.0687 20.9126Z" fill="#F5F5F5"/>
</svg>
