<svg width="20" height="18" viewBox="0 0 20 18" fill="none" xmlns="http://www.w3.org/2000/svg">
<path d="M17 5V3H15V2H17V0H18V2H20V3H18V5H17ZM9 14.73C10.0447 14.73 10.928 14.37 11.65 13.65C12.37 12.928 12.73 12.0447 12.73 11C12.73 9.95533 12.37 9.072 11.65 8.35C10.9273 7.63 10.044 7.27 9 7.27C7.956 7.27 7.07267 7.63 6.35 8.35C5.63 9.072 5.27 9.95533 5.27 11C5.27 12.0447 5.63033 12.928 6.351 13.65C7.07233 14.37 7.95533 14.73 9 14.73ZM9 13.73C8.22333 13.73 7.574 13.4693 7.052 12.948C6.53 12.4267 6.269 11.7773 6.269 11C6.269 10.2233 6.53 9.574 7.052 9.052C7.574 8.53 8.22333 8.269 9 8.269C9.77667 8.269 10.426 8.53 10.948 9.052C11.47 9.574 11.731 10.2233 11.731 11C11.731 11.7767 11.47 12.426 10.948 12.948C10.426 13.47 9.77667 13.731 9 13.731M0 18V4H4.573L6.423 2H12.615V5.385H14.615V7.385H18V18H0Z" fill="black"/>
</svg>
