<svg width="30" height="30" viewBox="0 0 30 30" fill="none" xmlns="http://www.w3.org/2000/svg">
<path fill-rule="evenodd" clip-rule="evenodd" d="M9.64286 2.14286C9.64286 1.57454 9.41709 1.02949 9.01523 0.627628C8.61336 0.225765 8.06832 0 7.5 0C6.93168 0 6.38663 0.225765 5.98477 0.627628C5.58291 1.02949 5.35714 1.57454 5.35714 2.14286V4.28571H3.21429C2.3618 4.28571 1.54424 4.62436 0.941442 5.22716C0.338647 5.82995 0 6.64752 0 7.5L0 26.7857C0 27.6382 0.338647 28.4558 0.941442 29.0586C1.54424 29.6614 2.3618 30 3.21429 30H26.7857C27.6382 30 28.4558 29.6614 29.0586 29.0586C29.6614 28.4558 30 27.6382 30 26.7857V7.5C30 6.64752 29.6614 5.82995 29.0586 5.22716C28.4558 4.62436 27.6382 4.28571 26.7857 4.28571H24.6429V2.14286C24.6429 1.57454 24.4171 1.02949 24.0152 0.627628C23.6134 0.225765 23.0683 0 22.5 0C21.9317 0 21.3866 0.225765 20.9848 0.627628C20.5829 1.02949 20.3571 1.57454 20.3571 2.14286V4.28571H9.64286V2.14286ZM12.7929 11.6314C12.7929 11.1664 13.17 10.7914 13.635 10.7914H16.3671C16.83 10.7914 17.2071 11.1664 17.2071 11.6314V14.9743H20.55C21.015 14.9743 21.39 15.3514 21.39 15.8143V18.5464C21.3903 18.6569 21.3688 18.7664 21.3267 18.8685C21.2846 18.9707 21.2228 19.0636 21.1447 19.1418C21.0667 19.22 20.974 19.2821 20.8719 19.3244C20.7699 19.3668 20.6605 19.3886 20.55 19.3886H17.2071V22.7314C17.2071 22.9542 17.1186 23.1679 16.9611 23.3254C16.8036 23.4829 16.5899 23.5714 16.3671 23.5714H13.6329C13.4101 23.5714 13.1964 23.4829 13.0389 23.3254C12.8814 23.1679 12.7929 22.9542 12.7929 22.7314V19.3886H9.45C9.33951 19.3886 9.2301 19.3668 9.12805 19.3244C9.026 19.2821 8.9333 19.22 8.85527 19.1418C8.77724 19.0636 8.71541 18.9707 8.67332 18.8685C8.63124 18.7664 8.60972 18.6569 8.61 18.5464V15.8143C8.61 15.3514 8.985 14.9743 9.45 14.9743H12.7929V11.6314Z" fill="#4D8BBB"/>
</svg>
