<svg width="27" height="27" viewBox="0 0 27 27" fill="none" xmlns="http://www.w3.org/2000/svg">
<path d="M21.989 20.1983C22.2268 20.4361 22.3603 20.7585 22.3603 21.0948C22.3603 21.431 22.2268 21.7535 21.989 21.9913C21.7512 22.229 21.4288 22.3626 21.0925 22.3626C20.7563 22.3626 20.4338 22.229 20.196 21.9913L13.4998 15.2929L6.80151 21.9892C6.56375 22.2269 6.24127 22.3605 5.90503 22.3605C5.56878 22.3605 5.24631 22.2269 5.00854 21.9892C4.77078 21.7514 4.63721 21.4289 4.63721 21.0927C4.63721 20.7564 4.77078 20.4339 5.00854 20.1962L11.7069 13.5L5.01065 6.80165C4.77289 6.56389 4.63932 6.24141 4.63932 5.90517C4.63932 5.56892 4.77289 5.24644 5.01065 5.00868C5.24841 4.77092 5.57089 4.63735 5.90714 4.63735C6.24338 4.63735 6.56586 4.77092 6.80362 5.00868L13.4998 11.707L20.1982 5.00763C20.4359 4.76986 20.7584 4.63629 21.0946 4.63629C21.4309 4.63629 21.7534 4.76986 21.9911 5.00763C22.2289 5.24539 22.3625 5.56786 22.3625 5.90411C22.3625 6.24036 22.2289 6.56283 21.9911 6.8006L15.2928 13.5L21.989 20.1983Z" fill="black"/>
</svg>
