<svg width="17" height="17" viewBox="0 0 17 17" fill="none" xmlns="http://www.w3.org/2000/svg">
<path d="M8.49996 0C13.1945 0 16.9999 3.80543 16.9999 8.49996C16.9999 13.1945 13.1945 16.9999 8.49996 16.9999C3.80543 16.9999 0 13.1945 0 8.49996C0 3.80543 3.80543 0 8.49996 0ZM8.49996 1.69999C6.6965 1.69999 4.9669 2.41641 3.69166 3.69166C2.41641 4.9669 1.69999 6.6965 1.69999 8.49996C1.69999 10.3034 2.41641 12.033 3.69166 13.3083C4.9669 14.5835 6.6965 15.2999 8.49996 15.2999C10.3034 15.2999 12.033 14.5835 13.3083 13.3083C14.5835 12.033 15.2999 10.3034 15.2999 8.49996C15.2999 6.6965 14.5835 4.9669 13.3083 3.69166C12.033 2.41641 10.3034 1.69999 8.49996 1.69999ZM8.49996 3.39998C8.70815 3.40001 8.90909 3.47645 9.06467 3.61479C9.22025 3.75314 9.31965 3.94377 9.344 4.15053L9.34995 4.24998V8.14806L11.6509 10.449C11.8033 10.602 11.8918 10.8072 11.8984 11.0231C11.905 11.2389 11.8292 11.4492 11.6864 11.6112C11.5436 11.7732 11.3444 11.8747 11.1294 11.8952C10.9145 11.9157 10.6997 11.8535 10.5289 11.7214L10.449 11.6509L7.89901 9.10091C7.7669 8.96869 7.68206 8.79661 7.65761 8.61131L7.64996 8.49996V4.24998C7.64996 4.02455 7.73952 3.80835 7.89892 3.64894C8.05833 3.48954 8.27453 3.39998 8.49996 3.39998Z" fill="#757575"/>
</svg>
