<svg width="49" height="49" viewBox="0 0 49 49" fill="none" xmlns="http://www.w3.org/2000/svg">
<g filter="url(#filter0_d_303_685)">
<rect x="2" y="2" width="41" height="41" rx="20.5" fill="#EBF1F0"/>
<path d="M32 28.6905V29.6429H13V28.6905L15.1111 26.7857V21.0714C15.1111 18.119 17.2539 15.519 20.3889 14.681V14.4048C20.3889 13.8996 20.6113 13.4151 21.0072 13.0579C21.4031 12.7007 21.9401 12.5 22.5 12.5C23.0599 12.5 23.5969 12.7007 23.9928 13.0579C24.3887 13.4151 24.6111 13.8996 24.6111 14.4048V14.681C27.7461 15.519 29.8889 18.119 29.8889 21.0714V26.7857L32 28.6905ZM24.6111 30.5952C24.6111 31.1004 24.3887 31.5849 23.9928 31.9421C23.5969 32.2993 23.0599 32.5 22.5 32.5C21.9401 32.5 21.4031 32.2993 21.0072 31.9421C20.6113 31.5849 20.3889 31.1004 20.3889 30.5952" fill="#4D8BBB"/>
</g>
<rect x="26" y="27" width="8" height="8" rx="4" fill="#F14C18"/>
<defs>
<filter id="filter0_d_303_685" x="0" y="0" width="49" height="49" filterUnits="userSpaceOnUse" color-interpolation-filters="sRGB">
<feFlood flood-opacity="0" result="BackgroundImageFix"/>
<feColorMatrix in="SourceAlpha" type="matrix" values="0 0 0 0 0 0 0 0 0 0 0 0 0 0 0 0 0 0 127 0" result="hardAlpha"/>
<feOffset dx="2" dy="2"/>
<feGaussianBlur stdDeviation="2"/>
<feComposite in2="hardAlpha" operator="out"/>
<feColorMatrix type="matrix" values="0 0 0 0 0 0 0 0 0 0 0 0 0 0 0 0 0 0 0.25 0"/>
<feBlend mode="normal" in2="BackgroundImageFix" result="effect1_dropShadow_303_685"/>
<feBlend mode="normal" in="SourceGraphic" in2="effect1_dropShadow_303_685" result="shape"/>
</filter>
</defs>
</svg>
