<svg width="26" height="26" viewBox="0 0 26 26" fill="none" xmlns="http://www.w3.org/2000/svg">
<path d="M3.9001 13C3.9001 10.5865 4.85884 8.27188 6.56543 6.5653C8.27201 4.85872 10.5866 3.89998 13.0001 3.89998C15.4136 3.89998 17.7282 4.85872 19.4348 6.5653C21.1413 8.27188 22.1001 10.5865 22.1001 13V14.3H17.5501C17.3777 14.3 17.2124 14.3685 17.0905 14.4904C16.9686 14.6123 16.9001 14.7776 16.9001 14.95V22.75C16.9001 22.9224 16.9686 23.0877 17.0905 23.2096C17.2124 23.3315 17.3777 23.4 17.5501 23.4H20.8001C21.4897 23.4 22.151 23.126 22.6386 22.6385C23.1262 22.1509 23.4001 21.4895 23.4001 20.8V13C23.4001 10.2417 22.3044 7.59644 20.354 5.64606C18.4036 3.69569 15.7583 2.59998 13.0001 2.59998C10.2418 2.59998 7.59657 3.69569 5.64619 5.64606C3.69581 7.59644 2.6001 10.2417 2.6001 13V20.8C2.6001 21.4895 2.87403 22.1509 3.36162 22.6385C3.84921 23.126 4.51053 23.4 5.2001 23.4H8.4501C8.62249 23.4 8.78782 23.3315 8.90972 23.2096C9.03162 23.0877 9.1001 22.9224 9.1001 22.75V14.95C9.1001 14.7776 9.03162 14.6123 8.90972 14.4904C8.78782 14.3685 8.62249 14.3 8.4501 14.3H3.9001V13ZM3.9001 15.6H7.8001V22.1H5.2001C4.85532 22.1 4.52466 21.963 4.28086 21.7192C4.03706 21.4754 3.9001 21.1448 3.9001 20.8V15.6ZM22.1001 15.6V20.8C22.1001 21.1448 21.9631 21.4754 21.7193 21.7192C21.4755 21.963 21.1449 22.1 20.8001 22.1H18.2001V15.6H22.1001Z" fill="#F5F5F5"/>
</svg>
