<svg width="22" height="22" viewBox="0 0 22 22" fill="none" xmlns="http://www.w3.org/2000/svg">
<path d="M2.22062 22C1.58812 22 1.06012 21.7882 0.636625 21.3647C0.212208 20.9403 0 20.4119 0 19.7794V2.22062C0 1.58812 0.212208 1.06012 0.636625 0.636625C1.06012 0.212208 1.58812 0 2.22062 0H11.0261V1.375H2.22062C2.00979 1.375 1.81592 1.463 1.639 1.639C1.463 1.81592 1.375 2.00979 1.375 2.22062V19.7794C1.375 19.9902 1.463 20.1841 1.639 20.361C1.81592 20.537 2.00979 20.625 2.22062 20.625H11.0261V22H2.22062ZM17.1353 15.8647L16.17 14.8761L19.3586 11.6875H7.139V10.3125H19.3586L16.1686 7.1225L17.1353 6.13525L22 11L17.1353 15.8647Z" fill="#F5F5F5"/>
</svg>
