<svg width="22" height="24" viewBox="0 0 22 24" fill="none" xmlns="http://www.w3.org/2000/svg">
<g clip-path="url(#clip0_396_1362)">
<path d="M19.7084 4H17.7223V5.33333H19.5557V20H2.44455V5.33333H4.27788V4H2.29177C2.14891 4.0026 2.00793 4.03588 1.87687 4.09794C1.7458 4.15999 1.62723 4.24961 1.52792 4.36166C1.42861 4.47371 1.3505 4.60601 1.29807 4.751C1.24564 4.89599 1.2199 5.05083 1.22233 5.20667V20.1267C1.2199 20.2825 1.24564 20.4373 1.29807 20.5823C1.3505 20.7273 1.42861 20.8596 1.52792 20.9717C1.62723 21.0837 1.7458 21.1733 1.87687 21.2354C2.00793 21.2974 2.14891 21.3307 2.29177 21.3333H19.7084C19.8513 21.3307 19.9923 21.2974 20.1233 21.2354C20.2544 21.1733 20.373 21.0837 20.4723 20.9717C20.5716 20.8596 20.6497 20.7273 20.7021 20.5823C20.7546 20.4373 20.7803 20.2825 20.7779 20.1267V5.20667C20.7803 5.05083 20.7546 4.89599 20.7021 4.751C20.6497 4.60601 20.5716 4.47371 20.4723 4.36166C20.373 4.24961 20.2544 4.15999 20.1233 4.09794C19.9923 4.03588 19.8513 4.0026 19.7084 4Z" fill="#757575"/>
<path d="M4.88892 9.33331H6.11114V10.6666H4.88892V9.33331Z" fill="#757575"/>
<path d="M8.55566 9.33331H9.77789V10.6666H8.55566V9.33331Z" fill="#757575"/>
<path d="M12.2222 9.33331H13.4444V10.6666H12.2222V9.33331Z" fill="#757575"/>
<path d="M15.8889 9.33331H17.1111V10.6666H15.8889V9.33331Z" fill="#757575"/>
<path d="M4.88892 12.6667H6.11114V14H4.88892V12.6667Z" fill="#757575"/>
<path d="M8.55566 12.6667H9.77789V14H8.55566V12.6667Z" fill="#757575"/>
<path d="M12.2222 12.6667H13.4444V14H12.2222V12.6667Z" fill="#757575"/>
<path d="M15.8889 12.6667H17.1111V14H15.8889V12.6667Z" fill="#757575"/>
<path d="M4.88892 16H6.11114V17.3333H4.88892V16Z" fill="#757575"/>
<path d="M8.55566 16H9.77789V17.3333H8.55566V16Z" fill="#757575"/>
<path d="M12.2222 16H13.4444V17.3333H12.2222V16Z" fill="#757575"/>
<path d="M15.8889 16H17.1111V17.3333H15.8889V16Z" fill="#757575"/>
<path d="M6.11111 6.66665C6.27319 6.66665 6.42863 6.59641 6.54323 6.47138C6.65784 6.34636 6.72222 6.17679 6.72222 5.99998V1.99998C6.72222 1.82317 6.65784 1.6536 6.54323 1.52858C6.42863 1.40355 6.27319 1.33331 6.11111 1.33331C5.94903 1.33331 5.7936 1.40355 5.67899 1.52858C5.56438 1.6536 5.5 1.82317 5.5 1.99998V5.99998C5.5 6.17679 5.56438 6.34636 5.67899 6.47138C5.7936 6.59641 5.94903 6.66665 6.11111 6.66665Z" fill="#757575"/>
<path d="M15.8889 6.66665C16.051 6.66665 16.2065 6.59641 16.3211 6.47138C16.4357 6.34636 16.5001 6.17679 16.5001 5.99998V1.99998C16.5001 1.82317 16.4357 1.6536 16.3211 1.52858C16.2065 1.40355 16.051 1.33331 15.8889 1.33331C15.7269 1.33331 15.5714 1.40355 15.4568 1.52858C15.3422 1.6536 15.2778 1.82317 15.2778 1.99998V5.99998C15.2778 6.17679 15.3422 6.34636 15.4568 6.47138C15.5714 6.59641 15.7269 6.66665 15.8889 6.66665Z" fill="#757575"/>
<path d="M7.94434 4H14.0554V5.33333H7.94434V4Z" fill="#757575"/>
</g>
<defs>
<clipPath id="clip0_396_1362">
<rect width="22" height="24" fill="white"/>
</clipPath>
</defs>
</svg>
