<svg width="20" height="21" viewBox="0 0 20 21" fill="none" xmlns="http://www.w3.org/2000/svg">
<path d="M17.7594 6.01862L14.268 2.35346C14.1519 2.23155 14.0141 2.13485 13.8624 2.06887C13.7107 2.00289 13.5482 1.96893 13.384 1.96893C13.2198 1.96893 13.0572 2.00289 12.9056 2.06887C12.7539 2.13485 12.6161 2.23155 12.5 2.35346L2.86641 12.4687C2.74983 12.5902 2.65741 12.7347 2.59451 12.894C2.5316 13.0533 2.49948 13.2241 2.50001 13.3965V17.0625C2.50001 17.4106 2.6317 17.7444 2.86612 17.9906C3.10054 18.2367 3.41849 18.375 3.75001 18.375H7.24141C7.40563 18.3755 7.5683 18.3418 7.71999 18.2758C7.87168 18.2097 8.00935 18.1127 8.12501 17.9903L14.6617 11.1275L14.9336 12.2678L12.0586 15.2857C11.9413 15.4087 11.8754 15.5756 11.8753 15.7497C11.8753 15.9238 11.941 16.0907 12.0582 16.2139C12.1754 16.337 12.3343 16.4062 12.5001 16.4063C12.6659 16.4064 12.8249 16.3373 12.9422 16.2143L16.0672 12.933C16.1436 12.8529 16.199 12.7534 16.2279 12.6441C16.2568 12.5349 16.2582 12.4196 16.232 12.3096L15.693 10.0447L17.7594 7.87499C17.8755 7.7531 17.9676 7.6084 18.0304 7.44914C18.0933 7.28988 18.1256 7.11919 18.1256 6.9468C18.1256 6.77442 18.0933 6.60372 18.0304 6.44446C17.9676 6.2852 17.8755 6.1405 17.7594 6.01862ZM3.75001 14.709L5.99141 17.0625H3.75001V14.709ZM7.50001 16.791L4.0086 13.125L10.625 6.17776L14.1164 9.84374L7.50001 16.791ZM15 8.91596L11.5094 5.24998L13.3844 3.28123L16.875 6.94721L15 8.91596Z" fill="#4D8BBB"/>
</svg>
