<svg width="143" height="143" viewBox="0 0 143 143" fill="none" xmlns="http://www.w3.org/2000/svg">
<rect x="26.0604" y="-4.04932" width="124.679" height="124.679" rx="36" transform="rotate(13.9751 26.0604 -4.04932)" fill="#4D8BBB"/>
<rect x="71.5" y="-14.998" width="122.327" height="122.327" rx="36" transform="rotate(45 71.5 -14.998)" fill="#1A252F"/>
<rect x="12.6889" y="12.6891" width="117.622" height="117.622" rx="36" fill="white"/>
<g clip-path="url(#clip0_600_1165)">
<path d="M90.1864 61.2216C89.4119 60.3798 88.3424 59.8824 87.1254 59.8824H81.0035V59.8059C81.0035 58.8493 80.6347 57.931 80.0078 57.3188C79.3808 56.6683 78.5326 56.2857 77.6106 56.2857H66.5469C65.5881 56.2857 64.7398 56.6683 64.1129 57.3188C63.486 57.9693 63.1172 58.8493 63.1172 59.8059V59.8824H57.0321C55.8151 59.8824 54.7456 60.3798 53.9712 61.2216C53.1967 62.0251 52.6804 63.173 52.6804 64.3974V83.4521C52.6804 84.7148 53.1598 85.8244 53.9712 86.6279C54.7456 87.4314 55.852 87.9671 57.0321 87.9671H87.1254C88.3424 87.9671 89.4119 87.4697 90.1864 86.6279C90.9609 85.8244 91.4772 84.6765 91.4772 83.4521V64.3974C91.4772 63.1347 90.9977 62.0251 90.1864 61.2216ZM89.5595 83.4521H89.5226C89.5226 84.1408 89.2644 84.753 88.8219 85.2122C88.3793 85.6713 87.7893 85.9392 87.1254 85.9392H57.0321C56.3683 85.9392 55.7782 85.6713 55.3357 85.2122C54.8931 84.753 54.635 84.1408 54.635 83.4521V64.3974C54.635 63.7086 54.8931 63.0964 55.3357 62.6373C55.7782 62.1781 56.3683 61.9103 57.0321 61.9103H64.1498C64.703 61.9103 65.1455 61.4512 65.1455 60.8772V59.7676C65.1455 59.3467 65.293 58.9641 65.5512 58.6963C65.8093 58.4284 66.1781 58.2754 66.5838 58.2754H77.6106C78.0163 58.2754 78.3851 58.4284 78.6433 58.6963C78.9014 58.9641 79.0489 59.3467 79.0489 59.7676V60.8772C79.0489 61.4512 79.4915 61.9103 80.0447 61.9103H87.1623C87.8261 61.9103 88.4162 62.1781 88.8587 62.6373C89.3013 63.0964 89.5595 63.7086 89.5595 64.3974V83.4521Z" fill="#3A3A3A"/>
<path d="M72.0788 64.5122C69.571 64.5122 67.2845 65.5835 65.6618 67.2671C64.0022 68.9889 63.0065 71.3229 63.0065 73.9247C63.0065 76.5266 64.0391 78.8989 65.6618 80.5824C67.3214 82.3042 69.571 83.3373 72.0788 83.3373C74.5865 83.3373 76.873 82.266 78.4957 80.5824C80.1553 78.8606 81.151 76.5266 81.151 73.9247C81.151 71.3229 80.1184 68.9506 78.4957 67.2671C76.873 65.5835 74.5865 64.5122 72.0788 64.5122ZM77.0943 79.1667C75.8035 80.4676 74.0334 81.3094 72.0788 81.3094C70.1242 81.3094 68.354 80.4676 67.0632 79.1667C65.7724 77.8275 64.998 75.9909 64.998 73.963C64.998 71.9351 65.8093 70.0985 67.0632 68.7593C68.354 67.4201 70.1242 66.6166 72.0788 66.6166C74.0334 66.6166 75.8035 67.4584 77.0943 68.7593C78.3851 70.0985 79.1595 71.9351 79.1595 73.963C79.1964 75.9909 78.3851 77.8275 77.0943 79.1667Z" fill="#3A3A3A"/>
<path d="M85.2077 68.2236C86.2058 68.2236 87.0148 67.3842 87.0148 66.3488C87.0148 65.3133 86.2058 64.4739 85.2077 64.4739C84.2097 64.4739 83.4007 65.3133 83.4007 66.3488C83.4007 67.3842 84.2097 68.2236 85.2077 68.2236Z" fill="#3A3A3A"/>
</g>
<defs>
<clipPath id="clip0_600_1165">
<rect width="38.5917" height="31.575" fill="white" transform="translate(52.6804 56.2092) scale(1.00579)"/>
</clipPath>
</defs>
</svg>
