<svg width="16" height="17" viewBox="0 0 16 17" fill="none" xmlns="http://www.w3.org/2000/svg">
<path d="M15.625 4.14671L12.0499 0.393742C11.9311 0.268912 11.79 0.16989 11.6347 0.102331C11.4793 0.0347724 11.3129 0 11.1448 0C10.9767 0 10.8102 0.0347724 10.6549 0.102331C10.4996 0.16989 10.3585 0.268912 10.2396 0.393742L0.375192 10.7514C0.25582 10.8757 0.161179 11.0237 0.09677 11.1868C0.032361 11.3499 -0.000530731 11.5248 6.47571e-06 11.7014V15.4552C6.47571e-06 15.8116 0.134858 16.1535 0.374895 16.4055C0.614932 16.6575 0.940492 16.7991 1.27996 16.7991H4.85502C5.02316 16.7997 5.18974 16.7652 5.34506 16.6975C5.50039 16.6299 5.64136 16.5305 5.75978 16.4052L12.4531 9.37803L12.7315 10.5456L9.78762 13.6358C9.66754 13.7618 9.60003 13.9327 9.59996 14.1109C9.59988 14.2892 9.66724 14.4602 9.78722 14.5862C9.9072 14.7123 10.07 14.7832 10.2397 14.7833C10.4095 14.7834 10.5723 14.7126 10.6924 14.5867L13.8923 11.2268C13.9705 11.1448 14.0272 11.0428 14.0568 10.931C14.0864 10.8191 14.0878 10.7011 14.0611 10.5884L13.5091 8.26927L15.625 6.04756C15.7439 5.92276 15.8382 5.77459 15.9025 5.61151C15.9669 5.44844 16 5.27365 16 5.09714C16 4.92062 15.9669 4.74584 15.9025 4.58276C15.8382 4.41968 15.7439 4.27152 15.625 4.14671ZM1.27996 13.0453L3.57507 15.4552H1.27996V13.0453ZM5.11981 15.1772L1.54475 11.4234L8.31968 4.30967L11.8947 8.06348L5.11981 15.1772ZM12.7995 7.11348L9.22525 3.35967L11.1452 1.34374L14.7194 5.09756L12.7995 7.11348Z" fill="#4D8BBB"/>
</svg>
