<svg width="20" height="20" viewBox="0 0 20 20" fill="none" xmlns="http://www.w3.org/2000/svg">
<path d="M10.0022 6.45829C9.33913 6.45829 8.70325 6.72168 8.23441 7.19053C7.76557 7.65937 7.50217 8.29525 7.50217 8.95829C7.50217 9.62133 7.76557 10.2572 8.23441 10.7261C8.70325 11.1949 9.33913 11.4583 10.0022 11.4583C10.6652 11.4583 11.3011 11.1949 11.7699 10.7261C12.2388 10.2572 12.5022 9.62133 12.5022 8.95829C12.5022 8.29525 12.2388 7.65937 11.7699 7.19053C11.3011 6.72168 10.6652 6.45829 10.0022 6.45829ZM8.54384 8.95829C8.54384 8.57152 8.69749 8.20059 8.97098 7.92709C9.24447 7.6536 9.6154 7.49996 10.0022 7.49996C10.3889 7.49996 10.7599 7.6536 11.0334 7.92709C11.3069 8.20059 11.4605 8.57152 11.4605 8.95829C11.4605 9.34507 11.3069 9.716 11.0334 9.98949C10.7599 10.263 10.3889 10.4166 10.0022 10.4166C9.6154 10.4166 9.24447 10.263 8.97098 9.98949C8.69749 9.716 8.54384 9.34507 8.54384 8.95829ZM15.4168 13.3333L11.2134 17.7958C11.0576 17.9613 10.8696 18.0931 10.6609 18.1832C10.4523 18.2733 10.2274 18.3198 10.0001 18.3198C9.7728 18.3198 9.54792 18.2733 9.33926 18.1832C9.1306 18.0931 8.94258 17.9613 8.78676 17.7958L4.58342 13.3333H4.59926L4.59217 13.325L4.58342 13.3145C3.50455 12.0386 2.91389 10.4209 2.91676 8.74996C2.91676 4.83788 6.08801 1.66663 10.0001 1.66663C13.9122 1.66663 17.0834 4.83788 17.0834 8.74996C17.0863 10.4209 16.4956 12.0386 15.4168 13.3145L15.408 13.325L15.4009 13.3333H15.4168ZM14.6072 12.6587C15.5355 11.5682 16.0443 10.1821 16.0418 8.74996C16.0418 5.41329 13.3368 2.70829 10.0001 2.70829C6.66342 2.70829 3.95843 5.41329 3.95843 8.74996C3.95582 10.1822 4.46454 11.5682 5.39301 12.6587L5.52134 12.81L9.54509 17.0812C9.60353 17.1433 9.67403 17.1927 9.75228 17.2265C9.83053 17.2603 9.91486 17.2777 10.0001 17.2777C10.0853 17.2777 10.1697 17.2603 10.2479 17.2265C10.3261 17.1927 10.3967 17.1433 10.4551 17.0812L14.4788 12.81L14.6072 12.6587Z" fill="#757575"/>
</svg>
