<svg width="60" height="60" viewBox="0 0 60 60" fill="none" xmlns="http://www.w3.org/2000/svg">
<path d="M30 60C13.431 60 0 46.569 0 30C0 13.431 13.431 0 30 0C46.569 0 60 13.431 60 30C60 46.569 46.569 60 30 60ZM27.636 43.062L39.246 31.149C39.6209 30.7643 39.8294 30.2476 39.8266 29.7104C39.8238 29.1733 39.6099 28.6588 39.231 28.278L27.621 16.593C27.434 16.3925 27.2087 16.2316 26.9583 16.1199C26.7079 16.0081 26.4376 15.9479 26.1635 15.9427C25.8894 15.9374 25.617 15.9874 25.3626 16.0895C25.1081 16.1916 24.8768 16.3438 24.6824 16.5371C24.4879 16.7303 24.3342 16.9607 24.2305 17.2145C24.1269 17.4683 24.0752 17.7404 24.0788 18.0145C24.0823 18.2886 24.1408 18.5593 24.251 18.8104C24.3612 19.0614 24.5206 19.2878 24.72 19.476L34.911 29.736L24.705 40.206C24.3263 40.5947 24.1175 41.1179 24.1245 41.6605C24.1315 42.2032 24.3538 42.7208 24.7425 43.0995C25.1312 43.4782 25.6544 43.687 26.197 43.68C26.7397 43.673 27.2573 43.4507 27.636 43.062Z" fill="#4D8BBB"/>
</svg>
