<svg width="90" height="90" viewBox="0 0 90 90" fill="none" xmlns="http://www.w3.org/2000/svg">
<path d="M22.5897 35.9631C22.5463 36.6838 22.5246 37.4314 22.5246 38.2061C22.5246 53.4375 19.336 56.25 14.8237 61.7748C12.9534 64.0635 14.5899 67.5 17.8629 67.5H56.25V70.3125C56.25 73.2962 55.0648 76.1577 52.955 78.2674C50.8452 80.3772 47.9837 81.5625 45 81.5625C42.0163 81.5625 39.1549 80.3772 37.0451 78.2674C34.9353 76.1577 33.75 73.2962 33.75 70.3125V67.5M72.8614 58.9395C69.6129 54.8174 67.4789 50.6689 67.4789 38.1973C67.4789 24.2578 60.3563 19.2885 54.4922 16.875C53.7135 16.5551 52.9805 15.8203 52.7432 15.0205C51.7166 11.5207 48.8356 8.4375 45 8.4375C41.1645 8.4375 38.2852 11.5225 37.2657 15.024C37.0284 15.8326 36.2953 16.5551 35.5078 16.875C34.4198 17.3188 33.3628 17.835 32.3438 18.4201" stroke="#4D8BBB" stroke-width="5.625" stroke-linecap="round" stroke-linejoin="round"/>
<path d="M78.75 78.75L11.25 11.25" stroke="#4D8BBB" stroke-width="5.625" stroke-miterlimit="10" stroke-linecap="round"/>
</svg>
