<svg width="72" height="12" viewBox="0 0 72 12" fill="none" xmlns="http://www.w3.org/2000/svg">
<path d="M6 0L7.41068 4.05836L11.7063 4.1459L8.28254 6.74164L9.52671 10.8541L6 8.4L2.47329 10.8541L3.71746 6.74164L0.293661 4.1459L4.58932 4.05836L6 0Z" fill="#E6AB2D"/>
<path d="M21 0L22.4107 4.05836L26.7063 4.1459L23.2825 6.74164L24.5267 10.8541L21 8.4L17.4733 10.8541L18.7175 6.74164L15.2937 4.1459L19.5893 4.05836L21 0Z" fill="#E6AB2D"/>
<path d="M36 0L37.4107 4.05836L41.7063 4.1459L38.2825 6.74164L39.5267 10.8541L36 8.4L32.4733 10.8541L33.7175 6.74164L30.2937 4.1459L34.5893 4.05836L36 0Z" fill="#E6AB2D"/>
<path d="M51 0L52.4107 4.05836L56.7063 4.1459L53.2825 6.74164L54.5267 10.8541L51 8.4L47.4733 10.8541L48.7175 6.74164L45.2937 4.1459L49.5893 4.05836L51 0Z" fill="#E6AB2D"/>
<path d="M66 1.52286L66.9384 4.22252L67.0526 4.55117L67.4005 4.55826L70.258 4.61649L67.9805 6.3432L67.7032 6.55341L67.804 6.88643L68.6316 9.62208L66.2856 7.98959L66 7.79086L65.7144 7.98959L63.3684 9.62208L64.196 6.88643L64.2968 6.55341L64.0195 6.3432L61.742 4.61649L64.5995 4.55826L64.9474 4.55117L65.0616 4.22252L66 1.52286Z" stroke="#E6AB2D"/>
</svg>
