<svg width="30" height="30" viewBox="0 0 30 30" fill="none" xmlns="http://www.w3.org/2000/svg">
<path d="M6.53846 7.30769C6.13044 7.30769 5.73912 7.46978 5.4506 7.7583C5.16209 8.04681 5 8.43813 5 8.84615V23.4615C5 23.8696 5.16209 24.2609 5.4506 24.5494C5.73912 24.8379 6.13044 25 6.53846 25H23.4615C23.8696 25 24.2609 24.8379 24.5494 24.5494C24.8379 24.2609 25 23.8696 25 23.4615V8.84615C25 8.43813 24.8379 8.04681 24.5494 7.7583C24.2609 7.46978 23.8696 7.30769 23.4615 7.30769H20.3846M9.61538 5V9.61538M20.3846 5V9.61538M9.61538 7.30769H17.3077" stroke="#4D8BBB" stroke-linecap="round" stroke-linejoin="round"/>
<path d="M13.7508 11.2493C13.5467 11.2493 13.3511 11.3303 13.2068 11.4746C13.0626 11.6188 12.9815 11.8145 12.9815 12.0185V14.1816H10.8154C10.6114 14.1816 10.4157 14.2626 10.2714 14.4069C10.1272 14.5511 10.0461 14.7468 10.0461 14.9508V17.4508C10.0461 17.6548 10.1272 17.8505 10.2714 17.9947C10.4157 18.139 10.6114 18.22 10.8154 18.22H12.98V20.3831C12.98 20.5871 13.061 20.7828 13.2053 20.927C13.3495 21.0713 13.5452 21.1523 13.7492 21.1523H16.2492C16.3502 21.1523 16.4503 21.1324 16.5436 21.0938C16.6369 21.0551 16.7217 20.9985 16.7931 20.927C16.8646 20.8556 16.9212 20.7708 16.9599 20.6775C16.9986 20.5842 17.0185 20.4841 17.0185 20.3831V18.22H19.1815C19.3855 18.22 19.5812 18.139 19.7255 17.9947C19.8697 17.8505 19.9508 17.6548 19.9508 17.4508V14.9508C19.9508 14.7468 19.8697 14.5511 19.7255 14.4069C19.5812 14.2626 19.3855 14.1816 19.1815 14.1816H17.02V12.0185C17.02 11.8145 16.9389 11.6188 16.7947 11.4746C16.6504 11.3303 16.4548 11.2493 16.2508 11.2493H13.7508Z" stroke="#4D8BBB" stroke-linecap="round" stroke-linejoin="round"/>
</svg>
