<svg width="50" height="50" viewBox="0 0 50 50" fill="none" xmlns="http://www.w3.org/2000/svg">
<g clip-path="url(#clip0_1059_444)">
<path d="M24.0836 15.0179C25.3032 15.019 26.4733 14.5355 27.3366 13.6739C28.1998 12.8123 28.6854 11.6431 28.6867 10.4234C28.6862 9.81955 28.5667 9.2217 28.3351 8.66402C28.1034 8.10635 27.7642 7.59978 27.3367 7.17325C26.9092 6.74672 26.4019 6.4086 25.8437 6.1782C25.2855 5.94779 24.6874 5.82963 24.0836 5.83045C21.5406 5.83045 19.4797 7.8867 19.4797 10.4234C19.4813 11.6431 19.9672 12.8122 20.8305 13.6737C21.6938 14.5353 22.8639 15.0188 24.0836 15.0179ZM38.1093 46.0781H1.4109C0.377309 46.0781 0.483559 46.8906 0.483559 46.8906V48.243C0.483559 48.243 0.389809 50 2.1945 50H48.1453C49.9617 50 49.8632 48.2836 49.8632 48.2836V44.5383C49.8632 44.5383 49.7093 43.3539 48.3164 43.3539H43.8382C42.3031 43.3539 41.0343 46.0773 38.1101 46.0773L38.1093 46.0781ZM41.6781 37.7797C41.6781 40.0625 43.5359 41.9164 45.825 41.9164C48.1132 41.9164 49.9757 40.0617 49.9757 37.7797C49.9757 35.4883 48.1132 33.6414 45.825 33.6414C45.2808 33.6404 44.7418 33.7466 44.2388 33.9541C43.7358 34.1616 43.2786 34.4663 42.8934 34.8506C42.5083 35.235 42.2027 35.6916 41.9941 36.1942C41.7856 36.6967 41.6782 37.2355 41.6781 37.7797ZM28.1226 29.8867C27.9848 30.3075 27.7538 30.6918 27.4469 31.011C27.14 31.3302 26.765 31.5762 26.35 31.7304L22.657 33.1L24.0195 34.4523H30.2539L30.25 24.9094L28.1632 29.8289C28.1531 29.8523 28.1343 29.8656 28.1218 29.8867H28.1226Z" fill="#4D8BBB"/>
<path d="M37.0766 36.7196H24.1859L21.0781 33.6852L18.9149 34.4821C17.3102 35.0563 15.3563 34.1797 14.7539 32.5852C14.3992 31.5953 14.4484 30.4899 15.0406 29.6844C14.7758 29.6727 7.22266 29.6844 7.22266 29.6844C6.92446 29.6835 6.62899 29.7413 6.35314 29.8546C6.07728 29.9679 5.82645 30.1344 5.61497 30.3447C5.40349 30.5549 5.2355 30.8048 5.1206 31.08C5.0057 31.3551 4.94614 31.6503 4.94532 31.9485C4.94532 33.2039 5.96641 34.1852 7.22266 34.1852H14.9125L17.9617 38.8016L2.21876 40.0664C1.67389 40.1909 1.19397 40.5117 0.870717 40.9676C0.547467 41.4236 0.403555 41.9826 0.466484 42.538C0.529413 43.0933 0.79477 43.606 1.21184 43.978C1.62892 44.3501 2.16846 44.5554 2.72735 44.5547L20.3906 44.5571C20.0716 44.047 19.9014 43.4579 19.8992 42.8563C19.8998 41.9918 20.2435 41.163 20.8548 40.5517C21.4661 39.9404 22.2949 39.5967 23.1594 39.5961H30.2266L35.9539 38.4L36.2719 39.9211L30.3867 41.15H23.1586C22.7068 41.1455 22.2717 41.3206 21.949 41.6368C21.6263 41.9531 21.4425 42.3846 21.4379 42.8364C21.4333 43.2882 21.6084 43.7233 21.9247 44.046C22.2409 44.3687 22.6724 44.5525 23.1242 44.5571L37.107 44.5586C38.1428 44.5541 39.1347 44.1395 39.8655 43.4055C40.5964 42.6716 41.0068 41.678 41.007 40.6422C41.0069 40.1264 40.9052 39.6157 40.7075 39.1393C40.5099 38.6629 40.2202 38.2301 39.8552 37.8657C39.4901 37.5013 39.0568 37.2124 38.58 37.0156C38.1033 36.8188 37.5924 36.7187 37.0766 36.7196Z" fill="#4D8BBB"/>
<path d="M18.6422 33.0586C18.2047 33.2499 17.7091 33.2598 17.2642 33.0863C16.8192 32.9128 16.4613 32.5699 16.2688 32.1328C16.1733 31.916 16.1214 31.6825 16.1164 31.4457C16.1113 31.2089 16.153 30.9734 16.2392 30.7527C16.3253 30.532 16.4542 30.3306 16.6185 30.1598C16.7827 29.9891 16.979 29.8525 17.1961 29.7578L23.7594 27.2938L25.7875 22.4562L24.4657 21.968L22.7415 26.1102L17.7454 27.95V22.8859L12.8618 28.2195L7.33521 28.2141C7.33521 28.2141 17.0063 17.6125 17.3086 17.2953C17.7094 16.8977 18.6258 16.2383 20.354 16.2383H26.5641C30.0922 16.2383 30.7711 19.7555 30.0493 21.5758L26.8016 29.4523C26.7028 29.6785 26.5592 29.8824 26.3796 30.0517C26.1999 30.221 25.9879 30.3522 25.7563 30.4375L18.6422 33.057V33.0586Z" fill="#4D8BBB"/>
</g>
<defs>
<clipPath id="clip0_1059_444">
<rect width="50" height="50" fill="white"/>
</clipPath>
</defs>
</svg>
