<svg width="38" height="46" viewBox="0 0 38 46" fill="none" xmlns="http://www.w3.org/2000/svg">
<path d="M35.6667 41.75H24.8333C25.0417 41.3333 25.0417 40.9166 25.0417 40.5C31.2917 38 35.4583 31.9583 35.4583 25.0833C35.4583 20.9166 33.7917 16.9583 31.0833 13.8333L32.3333 12.5833C32.5417 12.375 32.75 12.1666 32.75 11.75L34.2083 7.37498C34.4167 6.54164 34.2083 5.70831 33.7917 5.29164L29.4167 0.916644C28.7917 0.291644 27.9583 0.0833112 27.3333 0.499978L23.1667 1.74998C22.9583 1.74998 22.5417 1.95831 22.3333 2.16664L9 15.5C8.16667 16.3333 8.16667 17.5833 9 18.4166L6.08333 21.3333C5.25 22.1666 5.25 23.4166 6.08333 24.25L10.4583 28.625C11.2917 29.4583 12.5417 29.4583 13.375 28.625L16.2917 25.7083C17.125 26.5416 18.375 26.5416 19.2083 25.7083L28.375 16.75C30.4583 19.0416 31.5 21.9583 31.5 25.0833C31.5 29.875 28.5833 34.25 24.2083 36.3333C22.3333 33.4166 18.5833 32.375 15.6667 34.25C14.8333 34.875 14 35.5 13.5833 36.5416C12.75 36.125 11.9167 35.9166 11.2917 35.2916C12.125 35.0833 12.75 34.25 12.75 33.4166C12.75 32.1666 11.9167 31.3333 10.6667 31.3333H2.33333C1.08333 31.3333 0.25 32.1666 0.25 33.4166C0.25 34.6666 1.08333 35.5 2.33333 35.5H5.04167C7.125 37.7916 9.83333 39.6666 12.75 40.7083C12.75 41.125 12.9583 41.5416 12.9583 41.75H2.33333C1.08333 41.75 0.25 42.5833 0.25 43.8333C0.25 45.0833 1.08333 45.9166 2.33333 45.9166H35.6667C36.9167 45.9166 37.75 45.0833 37.75 43.8333C37.75 42.7916 36.9167 41.75 35.6667 41.75ZM11.9167 24.25L10.4583 22.7916L11.9167 21.3333L13.375 22.7916L11.9167 24.25ZM19 41.75C17.75 41.75 16.9167 40.9166 16.9167 39.6666C16.9167 38.4166 17.75 37.5833 19 37.5833C20.25 37.5833 21.0833 38.4166 21.0833 39.6666C21.0833 40.9166 20.25 41.75 19 41.75Z" fill="#4D8BBB"/>
</svg>
