<?xml version="1.0" standalone="no"?>
<!DOCTYPE svg PUBLIC "-//W3C//DTD SVG 20010904//EN"
 "http://www.w3.org/TR/2001/REC-SVG-20010904/DTD/svg10.dtd">
<svg version="1.0" xmlns="http://www.w3.org/2000/svg"
 width="512.000000pt" height="434.000000pt" viewBox="0 0 512.000000 434.000000"
 preserveAspectRatio="xMidYMid meet">

<g transform="translate(0.000000,434.000000) scale(0.100000,-0.100000)"
fill="#000000" stroke="none">
<path d="M1547 3350 c-499 -89 -855 -545 -823 -1055 11 -188 75 -371 182 -524
26 -36 221 -240 433 -453 l385 -388 71 0 71 0 390 393 c215 215 406 415 426
442 44 62 112 195 138 269 34 100 53 248 48 372 -5 107 -4 115 19 149 26 38
33 41 51 23 9 -9 12 -9 12 0 0 7 5 12 11 12 16 0 8 -295 -8 -312 -20 -19 -15
-38 8 -38 12 0 23 8 26 20 3 11 10 20 15 20 6 0 8 -9 5 -19 -4 -15 2 -20 32
-25 68 -11 88 -8 96 17 l8 22 4 -21 c5 -25 29 -34 91 -34 35 0 42 3 42 20 0
11 5 20 11 20 5 0 9 -10 7 -22 -2 -11 3 -23 10 -25 6 -3 12 1 13 9 2 34 6 56
65 336 3 17 9 22 23 17 13 -4 24 1 34 15 l14 20 58 -25 c63 -28 131 -41 169
-31 38 9 50 60 42 175 -4 53 -8 119 -9 146 -4 61 -32 119 -53 111 -9 -3 -22
-6 -30 -6 -26 0 -16 -57 17 -95 30 -34 31 -39 32 -128 1 -50 -2 -105 -6 -121
-7 -26 -11 -28 -43 -23 -59 10 -142 53 -141 73 3 23 -51 59 -118 79 -29 8 -57
15 -62 15 -6 0 -8 -25 -5 -55 3 -36 0 -60 -8 -70 -11 -13 -17 -10 -46 22 l-34
38 -36 -40 -36 -40 -39 45 c-21 25 -47 65 -56 88 l-18 44 -54 -6 c-64 -8 -70
-12 -112 -78 -28 -43 -31 -53 -20 -70 9 -14 9 -24 2 -31 -7 -7 -13 -2 -21 17
-5 15 -10 31 -10 36 0 16 -60 141 -100 209 -51 86 -169 213 -259 280 -84 63
-233 134 -337 163 -68 18 -112 21 -304 24 -124 1 -247 -1 -273 -6z m387 -574
c98 -48 182 -136 219 -230 29 -72 48 -174 40 -222 -22 -139 -56 -215 -134
-294 -62 -63 -122 -99 -210 -124 -50 -15 -59 -15 -109 0 -30 9 -75 27 -100 39
-54 28 -159 134 -189 192 -47 93 -64 230 -40 332 25 109 115 235 208 289 123
72 198 76 315 18z m1306 -116 c0 -5 -4 -10 -10 -10 -5 0 -10 5 -10 10 0 6 5
10 10 10 6 0 10 -4 10 -10z m-5 -39 c3 -5 1 -12 -5 -16 -5 -3 -10 1 -10 9 0
18 6 21 15 7z"/>
<path d="M3155 3349 c-4 -6 -19 -7 -36 -4 -31 7 -79 -15 -79 -37 0 -6 -12 -22
-26 -35 -21 -19 -25 -30 -21 -53 4 -18 1 -32 -8 -40 -8 -7 -15 -21 -15 -32 0
-20 47 -67 67 -68 15 0 33 -32 33 -59 0 -11 14 -29 30 -41 26 -19 30 -28 30
-68 0 -26 -7 -60 -15 -76 -9 -16 -12 -32 -7 -35 4 -3 29 -21 56 -39 50 -36 68
-36 86 -3 9 17 6 24 -15 43 -19 16 -25 31 -25 60 0 33 3 38 24 38 12 0 38 10
57 23 48 32 56 74 36 179 -9 45 -14 92 -11 104 3 12 -1 26 -10 33 -10 8 -13
23 -9 47 4 26 2 34 -9 34 -9 0 -27 9 -41 20 -27 21 -82 27 -92 9z"/>
<path d="M2470 3208 c0 -2 21 -21 48 -43 26 -21 38 -28 27 -16 -19 23 -75 66
-75 59z"/>
<path d="M2467 852 c-11 -12 -13 -22 -7 -28 13 -13 -16 -54 -37 -54 -22 0 -83
-22 -83 -30 0 -4 25 -55 56 -114 41 -79 60 -106 73 -103 9 2 14 10 12 18 -3 8
-5 47 -4 87 0 66 3 76 26 100 21 21 29 23 41 13 11 -9 20 -10 36 -1 18 10 19
14 9 28 -22 30 -93 102 -100 102 -3 0 -13 -8 -22 -18z"/>
<path d="M2947 575 c-12 -30 -7 -44 17 -47 l25 -3 -21 -47 c-11 -27 -26 -48
-33 -48 -10 0 -35 -68 -35 -95 0 -3 64 -4 142 -3 127 3 143 5 146 21 2 11 -3
17 -15 17 -17 0 -102 38 -131 58 -11 7 -9 18 9 55 19 38 28 47 49 47 19 0 30
8 38 25 11 24 10 25 -27 25 -21 0 -65 3 -98 6 -51 6 -61 4 -66 -11z"/>
</g>
</svg>
